Normalized EMG Linear Envelopes
nRows=49
nColumns=17

endheader
time	        VM	        VL	        RF	       GRA	        TA	   ADDLONG	   SEMIMEM	      BFLH	        GM	        GL	       TFL	   GLUTMAX	   GLUTMED	      PIRI	    OBTINT	        QF	
2.24	  0.047478	  0.065731	  0.352912	  0.132974	  0.177855	  0.065736	  0.006266	  0.016109	  0.024800	  0.053156	  0.186280	  0.026449	  0.052060	  0.324978	  0.214958	  0.068089	
2.2405	  0.047107	  0.065372	  0.351496	  0.133600	  0.176826	  0.065727	  0.006409	  0.016195	  0.025308	  0.053974	  0.186507	  0.026643	  0.053101	  0.326541	  0.212873	  0.068271	
2.241	  0.046744	  0.065009	  0.350016	  0.134227	  0.175827	  0.065726	  0.006555	  0.016285	  0.025826	  0.054795	  0.186735	  0.026841	  0.054161	  0.328097	  0.210839	  0.068446	
2.2415	  0.046389	  0.064644	  0.348475	  0.134854	  0.174858	  0.065732	  0.006704	  0.016377	  0.026353	  0.055619	  0.186963	  0.027043	  0.055239	  0.329644	  0.208858	  0.068613	
2.242	  0.046041	  0.064276	  0.346871	  0.135482	  0.173917	  0.065745	  0.006858	  0.016471	  0.026890	  0.056445	  0.187190	  0.027248	  0.056335	  0.331181	  0.206932	  0.068772	
2.2425	  0.045702	  0.063905	  0.345207	  0.136110	  0.173005	  0.065764	  0.007015	  0.016569	  0.027436	  0.057273	  0.187415	  0.027456	  0.057449	  0.332706	  0.205063	  0.068924	
2.243	  0.045371	  0.063530	  0.343482	  0.136739	  0.172122	  0.065790	  0.007177	  0.016670	  0.027992	  0.058102	  0.187637	  0.027668	  0.058582	  0.334219	  0.203253	  0.069069	
2.2435	  0.045048	  0.063151	  0.341699	  0.137367	  0.171266	  0.065823	  0.007342	  0.016773	  0.028558	  0.058932	  0.187855	  0.027883	  0.059733	  0.335717	  0.201503	  0.069206	
2.244	  0.044733	  0.062769	  0.339857	  0.137996	  0.170439	  0.065862	  0.007510	  0.016880	  0.029134	  0.059764	  0.188069	  0.028102	  0.060902	  0.337201	  0.199815	  0.069336	
2.2445	  0.044426	  0.062382	  0.337957	  0.138625	  0.169638	  0.065908	  0.007683	  0.016989	  0.029719	  0.060596	  0.188278	  0.028324	  0.062090	  0.338669	  0.198192	  0.069458	
2.245	  0.044127	  0.061991	  0.336001	  0.139254	  0.168864	  0.065959	  0.007860	  0.017102	  0.030314	  0.061427	  0.188481	  0.028550	  0.063297	  0.340120	  0.196634	  0.069573	
2.2455	  0.043836	  0.061597	  0.333989	  0.139882	  0.168116	  0.066017	  0.008040	  0.017217	  0.030918	  0.062259	  0.188678	  0.028779	  0.064521	  0.341554	  0.195144	  0.069680	
2.246	  0.043553	  0.061198	  0.331923	  0.140512	  0.167394	  0.066081	  0.008225	  0.017336	  0.031532	  0.063089	  0.188868	  0.029013	  0.065764	  0.342972	  0.193723	  0.069779	
2.2465	  0.043278	  0.060795	  0.329804	  0.141141	  0.166697	  0.066151	  0.008413	  0.017457	  0.032155	  0.063919	  0.189053	  0.029249	  0.067025	  0.344373	  0.192372	  0.069871	
2.247	  0.043011	  0.060387	  0.327633	  0.141770	  0.166024	  0.066226	  0.008605	  0.017582	  0.032788	  0.064747	  0.189229	  0.029490	  0.068305	  0.345757	  0.191094	  0.069955	
2.2475	  0.042752	  0.059976	  0.325413	  0.142399	  0.165375	  0.066307	  0.008801	  0.017710	  0.033430	  0.065572	  0.189399	  0.029734	  0.069602	  0.347123	  0.189889	  0.070033	
2.248	  0.042502	  0.059560	  0.323146	  0.143028	  0.164748	  0.066393	  0.009002	  0.017841	  0.034081	  0.066395	  0.189561	  0.029981	  0.070917	  0.348474	  0.188760	  0.070102	
2.2485	  0.042259	  0.059140	  0.320835	  0.143657	  0.164144	  0.066484	  0.009206	  0.017974	  0.034741	  0.067215	  0.189714	  0.030233	  0.072251	  0.349807	  0.187707	  0.070164	
2.249	  0.042025	  0.058715	  0.318482	  0.144286	  0.163562	  0.066580	  0.009415	  0.018111	  0.035411	  0.068031	  0.189859	  0.030488	  0.073602	  0.351123	  0.186731	  0.070219	
2.2495	  0.041798	  0.058287	  0.316088	  0.144915	  0.163000	  0.066682	  0.009628	  0.018251	  0.036090	  0.068843	  0.189995	  0.030746	  0.074970	  0.352424	  0.185834	  0.070267	
2.25	  0.041580	  0.057854	  0.313657	  0.145544	  0.162459	  0.066788	  0.009845	  0.018395	  0.036777	  0.069650	  0.190121	  0.031008	  0.076357	  0.353707	  0.185018	  0.070307	
2.2505	  0.041370	  0.057418	  0.311189	  0.146174	  0.161936	  0.066898	  0.010066	  0.018541	  0.037474	  0.070451	  0.190237	  0.031274	  0.077761	  0.354975	  0.184283	  0.070339	
2.251	  0.041168	  0.056977	  0.308688	  0.146803	  0.161432	  0.067013	  0.010292	  0.018690	  0.038179	  0.071247	  0.190342	  0.031544	  0.079183	  0.356228	  0.183630	  0.070365	
2.2515	  0.040974	  0.056533	  0.306155	  0.147432	  0.160946	  0.067132	  0.010522	  0.018842	  0.038893	  0.072036	  0.190437	  0.031818	  0.080623	  0.357467	  0.183061	  0.070383	
2.252	  0.040788	  0.056086	  0.303592	  0.148062	  0.160475	  0.067256	  0.010757	  0.018998	  0.039615	  0.072818	  0.190520	  0.032095	  0.082080	  0.358691	  0.182576	  0.070394	
2.2525	  0.040611	  0.055635	  0.301001	  0.148691	  0.160020	  0.067383	  0.010997	  0.019156	  0.040346	  0.073593	  0.190591	  0.032376	  0.083555	  0.359903	  0.182177	  0.070397	
2.253	  0.040442	  0.055181	  0.298384	  0.149321	  0.159580	  0.067514	  0.011241	  0.019318	  0.041086	  0.074359	  0.190651	  0.032661	  0.085049	  0.361103	  0.181865	  0.070394	
2.2535	  0.040281	  0.054725	  0.295743	  0.149951	  0.159153	  0.067649	  0.011490	  0.019482	  0.041834	  0.075117	  0.190699	  0.032950	  0.086560	  0.362292	  0.181639	  0.070384	
2.254	  0.040128	  0.054266	  0.293080	  0.150580	  0.158738	  0.067787	  0.011745	  0.019650	  0.042591	  0.075866	  0.190735	  0.033243	  0.088089	  0.363472	  0.181502	  0.070367	
2.2545	  0.039984	  0.053804	  0.290396	  0.151210	  0.158334	  0.067928	  0.012004	  0.019821	  0.043356	  0.076606	  0.190759	  0.033539	  0.089636	  0.364643	  0.181454	  0.070343	
2.255	  0.039848	  0.053340	  0.287693	  0.151841	  0.157941	  0.068072	  0.012269	  0.019995	  0.044129	  0.077337	  0.190772	  0.033840	  0.091200	  0.365807	  0.181495	  0.070312	
2.2555	  0.039721	  0.052873	  0.284974	  0.152471	  0.157556	  0.068218	  0.012539	  0.020172	  0.044912	  0.078058	  0.190772	  0.034144	  0.092783	  0.366966	  0.181627	  0.070274	
2.256	  0.039602	  0.052405	  0.282239	  0.153102	  0.157180	  0.068367	  0.012814	  0.020353	  0.045702	  0.078770	  0.190761	  0.034452	  0.094383	  0.368120	  0.181849	  0.070229	
2.2565	  0.039490	  0.051934	  0.279490	  0.153733	  0.156810	  0.068518	  0.013096	  0.020537	  0.046502	  0.079471	  0.190738	  0.034763	  0.096002	  0.369270	  0.182163	  0.070178	
2.257	  0.039388	  0.051462	  0.276729	  0.154364	  0.156446	  0.068671	  0.013383	  0.020724	  0.047310	  0.080162	  0.190704	  0.035078	  0.097638	  0.370419	  0.182570	  0.070120	
2.2575	  0.039293	  0.050988	  0.273958	  0.154995	  0.156087	  0.068826	  0.013676	  0.020914	  0.048127	  0.080843	  0.190658	  0.035397	  0.099292	  0.371568	  0.183069	  0.070056	
2.258	  0.039207	  0.050512	  0.271178	  0.155626	  0.155732	  0.068982	  0.013976	  0.021109	  0.048953	  0.081513	  0.190600	  0.035719	  0.100965	  0.372717	  0.183660	  0.069985	
2.2585	  0.039128	  0.050035	  0.268390	  0.156257	  0.155379	  0.069140	  0.014282	  0.021306	  0.049788	  0.082173	  0.190531	  0.036045	  0.102655	  0.373869	  0.184346	  0.069908	
2.259	  0.039058	  0.049556	  0.265597	  0.156887	  0.155028	  0.069299	  0.014594	  0.021508	  0.050632	  0.082822	  0.190449	  0.036374	  0.104364	  0.375023	  0.185125	  0.069824	
2.2595	  0.038995	  0.049076	  0.262799	  0.157517	  0.154677	  0.069459	  0.014913	  0.021713	  0.051486	  0.083461	  0.190356	  0.036706	  0.106090	  0.376181	  0.185998	  0.069734	
2.26	  0.038941	  0.048595	  0.259999	  0.158147	  0.154325	  0.069619	  0.015239	  0.021922	  0.052348	  0.084090	  0.190250	  0.037042	  0.107834	  0.377345	  0.186965	  0.069638	
2.2605	  0.038894	  0.048113	  0.257197	  0.158776	  0.153972	  0.069781	  0.015572	  0.022135	  0.053220	  0.084708	  0.190132	  0.037381	  0.109597	  0.378514	  0.188027	  0.069535	
2.261	  0.038855	  0.047630	  0.254395	  0.159404	  0.153616	  0.069943	  0.015912	  0.022352	  0.054100	  0.085316	  0.190001	  0.037723	  0.111377	  0.379690	  0.189183	  0.069427	
2.2615	  0.038823	  0.047146	  0.251594	  0.160032	  0.153255	  0.070106	  0.016260	  0.022574	  0.054991	  0.085914	  0.189857	  0.038068	  0.113175	  0.380873	  0.190434	  0.069312	
2.262	  0.038799	  0.046662	  0.248796	  0.160661	  0.152890	  0.070268	  0.016616	  0.022799	  0.055890	  0.086502	  0.189699	  0.038416	  0.114991	  0.382063	  0.191780	  0.069192	
2.2625	  0.038781	  0.046178	  0.246001	  0.161289	  0.152518	  0.070431	  0.016979	  0.023030	  0.056799	  0.087080	  0.189527	  0.038768	  0.116824	  0.383261	  0.193220	  0.069066	
2.263	  0.038771	  0.045693	  0.243211	  0.161917	  0.152138	  0.070593	  0.017350	  0.023264	  0.057717	  0.087649	  0.189340	  0.039123	  0.118675	  0.384467	  0.194755	  0.068935	
2.2635	  0.038768	  0.045207	  0.240426	  0.162545	  0.151751	  0.070755	  0.017729	  0.023504	  0.058645	  0.088208	  0.189139	  0.039481	  0.120544	  0.385682	  0.196385	  0.068799	
2.264	  0.038772	  0.044722	  0.237648	  0.163173	  0.151353	  0.070916	  0.018117	  0.023748	  0.059582	  0.088757	  0.188922	  0.039842	  0.122429	  0.386905	  0.198109	  0.068658	
